<?xml version="1.0" standalone="no"?>
<!DOCTYPE svg PUBLIC "-//W3C//DTD SVG 20010904//EN"
 "http://www.w3.org/TR/2001/REC-SVG-20010904/DTD/svg10.dtd">
<svg version="1.0" xmlns="http://www.w3.org/2000/svg"
 width="700.000000pt" height="700.000000pt" viewBox="0 0 700.000000 700.000000"
 preserveAspectRatio="xMidYMid meet">
<metadata>
Created by potrace 1.11, written by Peter Selinger 2001-2013
</metadata>
<g transform="translate(0.000000,700.000000) scale(0.100000,-0.100000)"
fill="#000000" stroke="none">
<path d="M2226 6631 c15 -330 300 -733 797 -1125 87 -69 115 -97 55 -55 -209
146 -320 239 -517 429 -67 65 -176 194 -240 285 -35 50 -68 95 -73 100 -16 15
1 -80 24 -143 64 -170 298 -411 588 -605 72 -48 113 -80 80 -62 -121 66 -467
323 -610 453 -14 13 -33 28 -42 33 -15 8 -16 6 -7 -23 34 -107 146 -227 322
-343 31 -21 57 -40 57 -42 0 -9 -299 172 -310 187 -3 4 -15 12 -28 19 -21 11
-22 10 -14 -6 5 -10 19 -40 32 -66 13 -26 41 -67 62 -91 l38 -44 -107 44 c-60
25 -128 53 -153 64 -25 11 -137 58 -250 104 -566 233 -960 418 -1309 615 -142
80 -343 204 -418 257 -23 16 -23 16 -17 -17 4 -19 22 -64 41 -100 90 -174 335
-364 698 -539 267 -129 589 -252 932 -356 51 -15 91 -29 89 -31 -4 -4 -37 4
-176 42 -52 14 -102 27 -110 30 -162 41 -745 249 -775 276 -5 5 -15 9 -22 9
-14 0 -283 132 -343 169 -19 11 -42 24 -50 28 -8 4 -36 19 -61 35 -25 15 -49
28 -52 28 -4 0 4 -18 16 -40 101 -181 472 -365 1047 -520 102 -28 199 -55 215
-60 26 -8 25 -8 -10 -3 -133 18 -861 227 -1082 310 -7 3 -13 -2 -13 -11 0 -41
177 -141 355 -201 94 -31 408 -114 485 -128 95 -18 156 -32 163 -38 5 -3 -25
-1 -65 6 -40 7 -95 16 -123 19 -47 7 -201 31 -255 41 -63 11 -329 56 -360 61
-19 3 -44 8 -55 11 -18 5 -17 3 5 -22 72 -78 276 -152 565 -204 114 -21 124
-22 265 -41 124 -16 147 -18 233 -26 42 -3 77 -9 77 -13 0 -3 -175 -5 -390 -4
-236 2 -390 -1 -390 -7 0 -31 229 -95 410 -114 126 -13 542 -14 670 -1 67 7
80 0 20 -10 -19 -3 -60 -10 -90 -15 -30 -5 -104 -17 -165 -25 -60 -9 -121 -18
-135 -20 -14 -3 -45 -7 -70 -10 -25 -3 -61 -7 -80 -10 -38 -5 -180 -17 -277
-24 -35 -3 9 -66 65 -95 92 -47 360 -57 586 -22 17 3 54 8 81 11 28 3 64 8 80
10 47 7 23 -1 -180 -60 -209 -62 -415 -131 -429 -145 -13 -13 38 -55 84 -69
104 -31 321 3 563 87 48 17 85 27 82 22 -4 -6 -10 -10 -15 -10 -12 0 -166 -90
-237 -138 -32 -22 -83 -64 -113 -93 l-55 -54 36 -3 c58 -5 217 53 396 143 91
46 161 80 157 76 -5 -4 -38 -30 -74 -56 -82 -61 -185 -149 -228 -195 -53 -56
-95 -120 -80 -121 79 -9 180 40 378 184 l95 69 -70 -73 c-38 -40 -72 -76 -75
-79 -57 -60 -140 -193 -140 -224 0 -15 3 -15 38 3 41 21 174 117 257 185 83
69 92 73 45 21 -91 -101 -143 -183 -159 -254 -8 -35 -7 -41 8 -41 37 0 142 71
241 164 58 54 84 69 44 25 -60 -66 -133 -190 -134 -228 0 -33 134 42 225 126
100 91 100 91 52 23 -59 -86 -137 -240 -121 -240 21 0 179 107 204 138 3 4 27
27 54 52 l49 45 -51 -75 c-78 -117 -110 -190 -83 -190 5 0 32 15 60 34 28 19
51 31 51 26 0 -5 -9 -28 -19 -52 -78 -183 -187 -590 -237 -883 -18 -108 -24
-145 -29 -180 -3 -22 -7 -53 -10 -70 -11 -72 -30 -225 -40 -330 -3 -27 -7 -70
-10 -95 -2 -25 -7 -79 -10 -120 -3 -41 -8 -91 -10 -110 -2 -19 -7 -84 -10
-145 -3 -60 -8 -135 -10 -165 -4 -55 -12 -227 -21 -455 -8 -226 -16 -1180 -10
-1174 9 8 13 37 21 134 3 44 7 100 10 125 2 25 6 86 10 135 4 50 8 108 11 130
2 22 6 73 9 115 5 73 10 118 20 210 3 25 8 70 10 100 3 30 9 89 15 130 5 41
12 95 14 120 3 25 8 63 11 85 3 22 8 56 11 75 49 356 123 674 200 852 81 190
140 256 378 420 777 538 1237 999 1588 1591 32 54 58 100 58 102 0 5 113 190
143 235 101 147 211 201 422 207 l119 3 81 -53 c83 -54 303 -217 366 -271 19
-17 60 -51 90 -76 139 -116 341 -304 550 -514 44 -44 81 -77 84 -74 3 2 -3 13
-13 24 -9 11 -39 46 -67 79 -47 56 -87 103 -110 129 -5 6 -28 31 -49 56 -212
243 -460 499 -807 835 -68 66 -146 152 -174 190 -152 214 -392 396 -596 451
-76 21 -251 24 -319 5 -254 -68 -491 -266 -710 -591 -47 -69 -71 -94 -131
-135 -41 -27 -87 -61 -102 -75 -16 -14 -32 -25 -37 -25 -4 0 -59 56 -121 125
-63 68 -195 203 -294 300 -356 347 -601 593 -655 657 -151 180 -252 332 -343
516 -26 53 -52 97 -56 97 -5 0 -7 -35 -5 -79z m2811 -1054 c12 -7 31 -25 44
-41 22 -28 22 -28 1 -17 -60 32 -129 -7 -123 -69 4 -40 36 -72 73 -75 19 -1
14 -12 -10 -21 -43 -16 -108 2 -133 37 -32 45 -36 100 -10 142 11 18 31 39 43
45 31 14 88 14 115 -1z m-3050 -13 c-3 -3 -12 -4 -19 -1 -8 3 -5 6 6 6 11 1
17 -2 13 -5z m-290 -10 c-3 -3 -12 -4 -19 -1 -8 3 -5 6 6 6 11 1 17 -2 13 -5z
m40 -10 c-3 -3 -12 -4 -19 -1 -8 3 -5 6 6 6 11 1 17 -2 13 -5z m46 -11 c-7 -2
-19 -2 -25 0 -7 3 -2 5 12 5 14 0 19 -2 13 -5z m-206 -39 c-3 -3 -12 -4 -19
-1 -8 3 -5 6 6 6 11 1 17 -2 13 -5z m273 -164 c0 -5 -4 -10 -10 -10 -5 0 -10
5 -10 10 0 6 5 10 10 10 6 0 10 -4 10 -10z m87 -6 c-3 -3 -12 -4 -19 -1 -8 3
-5 6 6 6 11 1 17 -2 13 -5z"/>
</g>
</svg>
